<svg width="189" height="23" viewBox="0 0 189 23" fill="none" xmlns="http://www.w3.org/2000/svg">
<path d="M69.2861 15.4809C68.8938 14.3949 68.6955 13.0881 68.6955 11.5971C68.6955 10.1073 68.8938 8.79987 69.2861 7.71388C69.6791 6.62534 70.2255 5.7243 70.9279 5.0146C71.3491 4.58712 71.8146 4.22811 72.3211 3.93438C72.6621 3.73727 73.019 3.56897 73.3985 3.43138C74.3423 3.08965 75.3587 2.91815 76.4438 2.91815C77.5487 2.91815 78.5728 3.08965 79.5192 3.43138C80.463 3.77375 81.2868 4.3017 81.9898 5.0146C82.6922 5.72558 83.2386 6.6279 83.6322 7.71772C84.0258 8.80883 84.2216 10.1028 84.2216 11.599C84.2216 13.0952 84.0258 14.3872 83.6322 15.479C83.2386 16.5701 82.6922 17.4711 81.9898 18.1834C81.5166 18.664 80.9857 19.0582 80.402 19.3705C80.1208 19.5202 79.8274 19.654 79.5192 19.7647C78.5728 20.1077 77.5487 20.2792 76.4438 20.2792C75.3587 20.2792 74.3423 20.1077 73.3985 19.7647C72.4515 19.4229 71.629 18.8963 70.9279 18.1834C70.752 18.0055 70.5863 17.816 70.4303 17.6151C69.9622 17.0097 69.5789 16.2942 69.2861 15.4809ZM84.0861 4.46041C83.3889 3.8371 82.5812 3.32067 81.6759 2.91879C81.3735 2.7844 81.0601 2.66345 80.7353 2.55466C79.4377 2.1195 78.0065 1.90063 76.4438 1.90063C74.9041 1.90063 73.4832 2.1195 72.1844 2.55466C72.0174 2.61033 71.8531 2.66921 71.6926 2.73256C70.603 3.15684 69.6521 3.73215 68.8406 4.45785C67.9083 5.29298 67.1847 6.31305 66.6672 7.51934C66.1497 8.72435 65.8916 10.099 65.8916 11.6399C65.8916 13.1809 66.1497 14.5549 66.6672 15.7605C67.1847 16.9668 67.9083 17.9869 68.8406 18.8207C69.7715 19.6552 70.8861 20.2766 72.1844 20.6843C73.4832 21.0925 74.9041 21.2967 76.4438 21.2967C78.0065 21.2967 79.4377 21.0925 80.7353 20.6843C80.8367 20.6523 80.9362 20.6151 81.0364 20.5819C81.9166 20.2753 82.7089 19.8677 83.4133 19.357C83.6483 19.1874 83.873 19.007 84.0861 18.8156C85.012 17.9875 85.7414 16.9592 86.2582 15.7573C86.7718 14.5574 87.0345 13.1713 87.0345 11.6387C87.0345 10.106 86.7718 8.71988 86.2582 7.51934C85.742 6.31881 85.012 5.28978 84.0861 4.46041Z" fill="#4D809E"/>
<path d="M62.0969 11.6299C62.0969 12.9572 61.9363 14.1046 61.6153 15.0722C61.2917 16.0398 60.8442 16.8397 60.2696 17.4714C59.6956 18.103 59.0208 18.5714 58.2471 18.8754C57.4734 19.1794 56.6336 19.3304 55.7309 19.3304C54.841 19.3304 54.0102 19.1794 53.2372 18.8754C52.4622 18.5714 51.7893 18.103 51.2153 17.4714C50.64 16.8397 50.1913 16.0398 49.8702 15.0722C49.5486 14.1046 49.3874 12.9572 49.3874 11.6299C49.3874 10.3027 49.5486 9.15464 49.8702 8.18641C50.1913 7.21881 50.64 6.41888 51.2153 5.7879C51.7893 5.15563 52.4622 4.68783 53.2372 4.3845C54.0102 4.08053 54.841 3.92822 55.7309 3.92822C56.6336 3.92822 57.4734 4.08053 58.2471 4.3845C59.0208 4.68783 59.6956 5.15563 60.2696 5.7879C60.8442 6.41888 61.2917 7.21881 61.6153 8.18641C61.9363 9.15464 62.0969 10.3027 62.0969 11.6299ZM64.8718 11.4213C64.8493 10.1274 64.6336 8.96522 64.2092 7.94131C63.7707 6.8854 63.1575 5.99076 62.3774 5.25291C62.3607 5.23819 62.3473 5.21963 62.3299 5.20427L62.3286 5.20299C61.5222 4.45682 60.5572 3.88791 59.4349 3.49946C58.3113 3.10973 57.0721 2.91455 55.7225 2.91455C54.3858 2.91455 53.1575 3.10973 52.0339 3.49946C50.9104 3.88791 49.9453 4.45682 49.1396 5.20299C48.3338 5.94916 47.7059 6.86236 47.259 7.94131C46.8115 9.02153 46.5874 10.2496 46.5874 11.6299C46.5874 13.0077 46.8115 14.2377 47.259 15.3167C47.7059 16.3969 48.3338 17.3101 49.1396 18.0556C49.9453 18.8018 50.9104 19.3579 52.0339 19.7227C53.1575 20.0894 54.3858 20.2717 55.7225 20.2717C57.0721 20.2717 58.3113 20.0894 59.4349 19.7227C60.5572 19.3579 61.5222 18.8018 62.3286 18.0556C63.1338 17.3101 63.7611 16.3969 64.2092 15.3167C64.6561 14.2377 64.8808 13.0077 64.8808 11.6299V11.6287V11.628C64.8808 11.5576 64.8731 11.4911 64.8718 11.4213Z" fill="#4D809E"/>
<mask id="mask0" mask-type="alpha" maskUnits="userSpaceOnUse" x="0" y="0" width="18" height="23">
<path d="M0.646973 0.874023H17.6184V22.305H0.646973V0.874023Z" fill="#4D809E"/>
</mask>
<g mask="url(#mask0)">
<path d="M13.5298 7.57487C14.1327 6.53049 15.0059 5.08421 15.533 4.18829C16.2123 3.03575 16.7709 2.15775 17.0579 1.72835C17.282 1.39046 17.4399 1.15496 17.6184 0.874663C17.6171 0.875303 17.6152 0.875943 17.6139 0.877223C17.6152 0.875943 17.6171 0.875303 17.6184 0.874663C17.5741 0.887462 17.5157 0.900261 17.4611 0.9137C17.3064 0.950817 17.1471 0.982174 16.9847 1.00585C16.9186 1.01609 16.8466 1.02377 16.7754 1.03081C16.6277 1.04617 16.482 1.05513 16.3362 1.05833C16.2925 1.05961 16.2534 1.06409 16.2097 1.06409C15.7166 1.06409 15.2364 0.997533 14.7978 0.874663C13.5561 3.10231 9.34873 9.91131 9.133 10.3074C8.91599 9.91131 4.70925 3.10615 3.46752 0.877863C3.46752 0.877863 3.46623 0.879143 3.46495 0.879783L3.46752 0.878503C3.42 0.891302 3.35323 0.90922 3.27683 0.927139C3.15805 0.955936 3.03734 0.978334 2.91599 0.998812C2.80941 1.01609 2.69256 1.03081 2.5635 1.04361C2.53911 1.04553 2.51471 1.04617 2.49031 1.04745C2.35548 1.05833 2.2123 1.06601 2.055 1.06601C1.97474 1.06601 1.90155 1.06089 1.82578 1.05833C1.70765 1.05257 1.59015 1.04681 1.47137 1.03209C1.4168 1.02697 1.35965 1.02249 1.307 1.01481C1.12659 0.988573 0.950664 0.949537 0.779878 0.90794C0.735576 0.895782 0.68999 0.886182 0.646973 0.874023C0.825464 1.15368 0.983409 1.3911 1.20684 1.72835C1.49256 2.15775 2.05307 3.03575 2.73172 4.18765C3.25949 5.08421 4.13076 6.53049 4.73493 7.57423C5.33846 8.61798 5.9741 9.71869 6.58019 10.7778C7.33975 12.1089 7.79432 12.9101 7.93942 13.1654L7.94007 13.9762C7.94007 15.0673 7.91952 16.2423 7.87779 17.2995C7.83669 18.3522 7.78983 21.2684 7.73975 22.3051C8.17827 22.1816 8.64568 22.1157 9.13043 22.1157C9.61518 22.1157 10.089 22.1816 10.5263 22.3051C10.4775 21.2684 10.4325 18.3566 10.3895 17.3039C10.3484 16.2461 10.3285 15.0705 10.3285 13.9801L10.3272 13.1648C10.7735 12.3783 11.2274 11.5784 11.6852 10.7778C12.2906 9.71933 12.9263 8.61798 13.5298 7.57487Z" fill="#4D809E"/>
</g>
<path d="M21.7895 13.9917C21.2309 13.9917 19.2893 13.9411 18.759 13.9161C20.1317 10.463 21.6065 6.70398 21.7895 5.97252C21.9718 6.70398 23.4396 10.4624 24.8129 13.9161C24.2832 13.9398 22.3468 13.9917 21.7895 13.9917ZM22.9279 3.51066C22.8688 3.36091 22.8136 3.22333 22.7744 3.11646C22.7673 3.11901 22.7622 3.12157 22.7558 3.12477C22.4559 3.24188 22.1356 3.30076 21.7837 3.30076C21.4646 3.30076 21.1609 3.24956 20.8784 3.14845C20.8579 3.14077 20.8174 3.12477 20.7982 3.1171C20.8007 3.1171 20.8033 3.11901 20.8059 3.11965C20.8033 3.11837 20.8007 3.1171 20.7975 3.11646C20.759 3.22333 20.7025 3.36091 20.6441 3.51066C19.5218 6.36353 15.6174 16.0504 13.7805 19.5617C13.7015 19.714 13.5629 19.9841 13.5186 20.0679C13.9629 19.9431 14.4367 19.8804 14.9343 19.8804C15.4216 19.8804 15.8852 19.9431 16.325 20.0679C16.3205 20.0647 16.3166 20.0615 16.3128 20.059C16.3166 20.0615 16.3205 20.0647 16.325 20.0679C16.4765 19.6667 17.3208 17.5683 18.3038 15.1013L18.3051 15.1007C18.7263 15.0885 19.2065 15.0712 19.6258 15.0655C20.176 15.0572 21.2245 15.054 21.7734 15.054H21.81C22.3449 15.054 23.4017 15.0578 23.9526 15.0655C24.3718 15.0719 24.8463 15.0892 25.2669 15.1007H25.2675C26.2498 17.5677 27.0961 19.668 27.2476 20.0679H27.2489C27.254 20.0654 27.2579 20.0609 27.2624 20.0577H27.2637C27.2592 20.0609 27.254 20.0647 27.2489 20.0679C27.688 19.9431 28.1555 19.8804 28.6428 19.8804C29.1391 19.8804 29.6071 19.9431 30.0508 20.0679C30.0437 20.0647 30.0309 20.059 30.0232 20.0558C30.0309 20.059 30.0437 20.0647 30.0508 20.0679H30.0515C30.0097 19.9841 29.871 19.7153 29.7921 19.563C27.9558 16.051 24.0502 6.36417 22.9279 3.51066Z" fill="#4D809E"/>
<path d="M45.5537 13.7697V9.55629C45.5537 8.47863 45.5736 7.42208 45.6154 6.38537C45.6558 5.3493 45.6931 4.19165 45.7419 3.11462C45.2982 3.24069 44.834 3.30404 44.3364 3.30404C43.844 3.30404 43.3682 3.24069 42.9245 3.1127H42.9239L42.9252 3.13062C42.9753 4.25948 43.0292 5.39794 43.0696 6.40137C43.1094 7.42464 43.1313 8.48631 43.1313 9.55629L43.1345 11.0186H43.1293C42.3871 11.0326 41.6732 11.0461 40.9727 11.0602C40.1489 11.0762 39.2963 11.0845 38.4109 11.0845C37.5268 11.0845 36.6729 11.0762 35.8504 11.0602C35.1493 11.0461 34.4257 11.0326 33.6834 11.0186L33.6886 9.55629C33.6886 8.48631 33.7091 7.42464 33.7496 6.40137C33.7887 5.39794 33.8433 4.24092 33.894 3.11206C33.4529 3.23941 32.9836 3.30404 32.4918 3.30404C31.9929 3.30404 31.521 3.24133 31.0773 3.1159C31.1255 4.19165 31.1621 5.3493 31.2032 6.38537C31.2443 7.42208 31.2642 8.47863 31.2642 9.55629V13.7697C31.2642 14.848 31.2443 15.909 31.2032 16.9547C31.1621 17.9978 31.1172 19.0492 31.0684 20.0616L31.0889 20.0501H31.0895L31.0684 20.0616C31.512 19.9368 31.9865 19.8715 32.4854 19.8715C32.9772 19.8715 33.4433 19.9355 33.8876 20.0629C33.8369 19.0294 33.7913 17.9485 33.7521 16.938C33.7123 15.9065 33.6912 14.841 33.6912 13.7697L33.6886 12.1833L33.6892 12.1826C34.4295 12.1698 35.157 12.1596 35.8542 12.1532C36.6851 12.1449 37.5441 12.1404 38.4109 12.1404C39.2777 12.1404 40.1361 12.1449 40.9682 12.1532C41.6661 12.1596 42.3846 12.1698 43.1249 12.1826H43.1313V13.7697C43.1313 14.841 43.1094 15.9065 43.0696 16.938C43.0292 17.9485 42.981 19.0294 42.9316 20.0629C43.3753 19.9355 43.8504 19.8715 44.3409 19.8715C44.8404 19.8715 45.3066 19.9368 45.7509 20.0629C45.7014 19.0505 45.6558 17.9978 45.6154 16.9547C45.5736 15.909 45.5537 14.848 45.5537 13.7697Z" fill="#4D809E"/>
<path d="M93.2326 2.0995C93.2326 2.09822 93.2313 2.09694 93.2313 2.09566C93.2307 2.09374 93.2307 2.09182 93.23 2.09054C93.214 2.02463 93.1896 1.96319 93.1639 1.9024C93.1575 1.88704 93.1536 1.86912 93.1459 1.85312C93.117 1.79297 93.0798 1.73729 93.0406 1.68354C93.031 1.66946 93.0246 1.6541 93.0143 1.64066C93.0143 1.64066 93.0137 1.64066 93.013 1.64002C93.013 1.64002 93.0124 1.6381 93.0117 1.63746C92.909 1.50691 92.7761 1.39812 92.6156 1.31301C92.4872 1.24646 92.3395 1.19974 92.1835 1.16582C92.1655 1.16198 92.1514 1.15239 92.1328 1.14855C92.1122 1.14471 92.0917 1.14151 92.0705 1.13703H92.0686C91.8644 1.10439 91.6724 1.10439 91.4933 1.13703C91.3148 1.16902 91.1549 1.23174 91.0156 1.32517C90.9488 1.36933 90.8897 1.42052 90.8339 1.47812C90.8313 1.48132 90.8275 1.48324 90.8243 1.48644C90.8011 1.51075 90.7832 1.54147 90.7613 1.56835C90.7299 1.60739 90.6952 1.64514 90.667 1.68994C90.667 1.69058 90.6663 1.69186 90.6657 1.69314L90.6644 1.69442C90.5719 1.84672 90.5077 2.02719 90.4743 2.23581C90.4731 2.24605 90.4654 2.29916 90.4634 2.31708C90.457 2.37148 90.4397 2.51611 90.4371 2.54106C90.2631 4.59272 89.9851 7.88011 89.8753 9.1728C89.4971 13.799 89.0182 16.7376 88.9321 17.5695C89.0971 17.5458 89.2711 17.5484 89.4567 17.5772L89.458 17.5778C89.6429 17.6066 89.8105 17.6578 89.9594 17.7314V17.7308C90.1353 16.9123 90.5905 13.9711 91.6647 9.45566C91.962 8.19241 93.2127 2.838 93.2178 2.81816C93.2262 2.7868 93.2339 2.74073 93.2454 2.67289C93.2801 2.46427 93.275 2.27293 93.2326 2.0995Z" fill="#4D809E"/>
<path d="M90.0751 20.1643C89.9698 20.0331 89.8369 19.9224 89.6751 19.8367C89.5159 19.7509 89.3309 19.6908 89.1268 19.6588C89.0266 19.6434 88.9277 19.6357 88.8327 19.6357C88.7377 19.6357 88.6433 19.6434 88.5547 19.6594C88.3756 19.6914 88.2144 19.7554 88.0751 19.8482C87.9358 19.9416 87.817 20.0671 87.7245 20.2181C87.6308 20.3704 87.5672 20.5528 87.5338 20.762C87.4998 20.9707 87.5043 21.1639 87.5467 21.3367C87.5878 21.5101 87.661 21.665 87.765 21.7968C87.869 21.928 88.0019 22.0368 88.1624 22.1181C88.3229 22.2006 88.5078 22.2576 88.7107 22.2889C88.8173 22.3069 88.9252 22.3145 89.0266 22.3145C89.1152 22.3145 89.2038 22.3094 89.286 22.2953C89.4638 22.2672 89.6244 22.2051 89.7656 22.1123C89.903 22.0189 90.0205 21.8954 90.1149 21.7418C90.2086 21.5908 90.2728 21.4077 90.3056 21.1991C90.3383 20.9905 90.3345 20.7966 90.2934 20.6245C90.251 20.4504 90.1778 20.2955 90.0751 20.1643Z" fill="#4D809E"/>
<path d="M110.17 5.06055V6.17533H103.95V10.5045H109.431V11.6283H103.95V18.1775H100.725V5.06055H110.17Z" fill="#4D809E"/>
<mask id="mask1" mask-type="alpha" maskUnits="userSpaceOnUse" x="0" y="0" width="189" height="23">
<path d="M0.646973 22.3147H189V0.874023H0.646973V22.3147Z" fill="#4D809E"/>
</mask>
<g mask="url(#mask1)">
<path d="M112.989 18.1772H116.214V5.0603H112.989V18.1772Z" fill="#4D809E"/>
</g>
<mask id="mask2" mask-type="alpha" maskUnits="userSpaceOnUse" x="0" y="0" width="189" height="23">
<path d="M0.646973 22.3147H189V0.874023H0.646973V22.3147Z" fill="#4D809E"/>
</mask>
<g mask="url(#mask2)">
<path d="M119.587 5.06055H121.648L129.152 13.4061V5.06055H131.176V18.3797H129.781L121.63 9.16899V18.1775H119.587V5.06055Z" fill="#4D809E"/>
</g>
<mask id="mask3" mask-type="alpha" maskUnits="userSpaceOnUse" x="0" y="0" width="189" height="23">
<path d="M0.646973 22.3147H189V0.874023H0.646973V22.3147Z" fill="#4D809E"/>
</mask>
<g mask="url(#mask3)">
<path d="M137.331 13.3691H141.296L139.346 9.13204L137.331 13.3691ZM140.621 4.77466L146.785 18.1776H143.486L141.84 14.594H136.73L135.002 18.1776H132.803L139.226 4.77466H140.621Z" fill="#4D809E"/>
</g>
<mask id="mask4" mask-type="alpha" maskUnits="userSpaceOnUse" x="0" y="0" width="189" height="23">
<path d="M0.646973 22.3147H189V0.874023H0.646973V22.3147Z" fill="#4D809E"/>
</mask>
<g mask="url(#mask4)">
<path d="M148.412 5.06055H150.473L157.977 13.4061V5.06055H160.001V18.3797H158.606L150.455 9.16899V18.1775H148.412V5.06055Z" fill="#4D809E"/>
</g>
<mask id="mask5" mask-type="alpha" maskUnits="userSpaceOnUse" x="0" y="0" width="189" height="23">
<path d="M0.646973 22.3147H189V0.874023H0.646973V22.3147Z" fill="#4D809E"/>
</mask>
<g mask="url(#mask5)">
<path d="M166.266 11.61C166.266 12.4573 166.395 13.2067 166.655 13.8575C166.914 14.5083 167.257 15.0548 167.685 15.497C168.114 15.9392 168.607 16.2739 169.165 16.5011C169.721 16.7283 170.299 16.8422 170.896 16.8422C171.359 16.8422 171.789 16.7622 172.185 16.6028C172.583 16.4429 172.957 16.2298 173.304 15.9623C173.653 15.6954 173.977 15.385 174.279 15.0324C174.58 14.6792 174.87 14.3061 175.147 13.9132L176.497 14.8987C176.207 15.3652 175.858 15.8131 175.448 16.2432C175.038 16.6732 174.578 17.054 174.066 17.3848C173.555 17.717 172.998 17.9813 172.394 18.1777C171.791 18.3736 171.152 18.4728 170.481 18.4728C169.348 18.4728 168.304 18.3083 167.352 17.9794C166.401 17.6511 165.578 17.1858 164.885 16.5836C164.193 15.9821 163.651 15.2609 163.263 14.4193C162.875 13.5778 162.681 12.6416 162.681 11.61C162.681 10.947 162.764 10.316 162.931 9.71704C163.097 9.11806 163.336 8.56386 163.647 8.05447C163.958 7.54443 164.338 7.08623 164.788 6.67731C165.237 6.26903 165.745 5.92026 166.307 5.63164C166.872 5.34303 167.489 5.12225 168.161 4.96866C168.832 4.81507 169.544 4.73828 170.295 4.73828C171.054 4.73828 171.748 4.82531 172.379 5.0013C173.012 5.176 173.585 5.42174 174.099 5.73787C174.613 6.05401 175.072 6.43029 175.476 6.86609C175.88 7.30254 176.234 7.77801 176.543 8.29381L175.175 9.24285C174.898 8.84992 174.598 8.47939 174.275 8.13254C173.951 7.78569 173.605 7.48172 173.235 7.22126C172.865 6.95953 172.478 6.75282 172.07 6.59924C171.663 6.44565 171.238 6.36886 170.795 6.36886C170.191 6.36886 169.615 6.48213 169.066 6.70995C168.519 6.93649 168.036 7.27182 167.62 7.71338C167.204 8.15622 166.874 8.70209 166.631 9.35356C166.388 10.0037 166.266 10.7563 166.266 11.61Z" fill="#4D809E"/>
</g>
<mask id="mask6" mask-type="alpha" maskUnits="userSpaceOnUse" x="0" y="0" width="189" height="23">
<path d="M0.646973 22.3147H189V0.874023H0.646973V22.3147Z" fill="#4D809E"/>
</mask>
<g mask="url(#mask6)">
<path d="M189 5.06055V6.17533H182.402V10.5045H187.883V11.6283H182.402V16.833H189V18.1775H179.176V5.06055H189Z" fill="#4D809E"/>
</g>
</svg>
